<mxfile host="app.diagrams.net" modified="2023-12-05T09:38:39.469Z" agent="Mozilla/5.0 (Windows NT 10.0; Win64; x64) AppleWebKit/537.36 (KHTML, like Gecko) Chrome/119.0.0.0 Safari/537.36" etag="OPrpHU8LG6pMSopwVJO_" version="22.1.5" type="github">
  <diagram name="Page-1" id="HT7ogSYT6eZmR_VBzKeP">
    <mxGraphModel dx="1173" dy="579" grid="0" gridSize="10" guides="1" tooltips="1" connect="1" arrows="1" fold="1" page="0" pageScale="1" pageWidth="827" pageHeight="1169" math="0" shadow="0">
      <root>
        <mxCell id="0" />
        <mxCell id="1" parent="0" />
        <mxCell id="M-R3emzxL240U-5onMwY-1" value="" style="rounded=1;whiteSpace=wrap;html=1;" parent="1" vertex="1">
          <mxGeometry x="506" y="495" width="120" height="70" as="geometry" />
        </mxCell>
        <mxCell id="M-R3emzxL240U-5onMwY-2" value="" style="rounded=0;whiteSpace=wrap;html=1;fillColor=#f8cecc;strokeColor=#b85450;" parent="1" vertex="1">
          <mxGeometry x="517" y="525" width="30" height="30" as="geometry" />
        </mxCell>
        <mxCell id="M-R3emzxL240U-5onMwY-3" value="" style="rounded=0;whiteSpace=wrap;html=1;" parent="1" vertex="1">
          <mxGeometry x="250" y="570" width="120" height="10" as="geometry" />
        </mxCell>
        <mxCell id="M-R3emzxL240U-5onMwY-4" value="" style="rounded=0;whiteSpace=wrap;html=1;" parent="1" vertex="1">
          <mxGeometry x="260" y="490" width="100" height="80" as="geometry" />
        </mxCell>
        <mxCell id="M-R3emzxL240U-5onMwY-5" value="" style="rounded=1;whiteSpace=wrap;html=1;" parent="1" vertex="1">
          <mxGeometry x="440" y="299" width="120" height="70" as="geometry" />
        </mxCell>
        <mxCell id="M-R3emzxL240U-5onMwY-6" value="" style="rounded=1;whiteSpace=wrap;html=1;" parent="1" vertex="1">
          <mxGeometry x="440" y="680" width="120" height="60" as="geometry" />
        </mxCell>
        <mxCell id="M-R3emzxL240U-5onMwY-7" value="" style="verticalLabelPosition=bottom;verticalAlign=top;html=1;shape=mxgraph.basic.half_circle;rotation=-180;" parent="1" vertex="1">
          <mxGeometry x="465" y="329" width="70" height="40" as="geometry" />
        </mxCell>
        <mxCell id="M-R3emzxL240U-5onMwY-8" value="" style="ellipse;whiteSpace=wrap;html=1;aspect=fixed;" parent="1" vertex="1">
          <mxGeometry x="485" y="299" width="30" height="30" as="geometry" />
        </mxCell>
        <mxCell id="M-R3emzxL240U-5onMwY-9" value="utlisateur" style="sketch=0;pointerEvents=1;shadow=0;dashed=0;html=1;strokeColor=none;fillColor=#434445;aspect=fixed;labelPosition=center;verticalLabelPosition=bottom;verticalAlign=top;align=center;outlineConnect=0;shape=mxgraph.vvd.administrator;" parent="1" vertex="1">
          <mxGeometry x="60" y="505" width="21.5" height="50" as="geometry" />
        </mxCell>
        <mxCell id="M-R3emzxL240U-5onMwY-10" value="" style="group;" parent="1" vertex="1" connectable="0">
          <mxGeometry x="510" y="502" width="50" height="10" as="geometry" />
        </mxCell>
        <mxCell id="M-R3emzxL240U-5onMwY-11" value="" style="ellipse;whiteSpace=wrap;html=1;aspect=fixed;fillColor=#ff0d00;strokeColor=#b85450;" parent="M-R3emzxL240U-5onMwY-10" vertex="1">
          <mxGeometry x="35" width="5" height="5" as="geometry" />
        </mxCell>
        <mxCell id="M-R3emzxL240U-5onMwY-12" value="" style="ellipse;whiteSpace=wrap;html=1;aspect=fixed;fillColor=#ff0d00;strokeColor=#b85450;" parent="M-R3emzxL240U-5onMwY-10" vertex="1">
          <mxGeometry x="20" width="5" height="5" as="geometry" />
        </mxCell>
        <mxCell id="M-R3emzxL240U-5onMwY-13" value="" style="ellipse;whiteSpace=wrap;html=1;aspect=fixed;fillColor=#ff0d00;strokeColor=#b85450;" parent="M-R3emzxL240U-5onMwY-10" vertex="1">
          <mxGeometry x="5" width="5" height="5" as="geometry" />
        </mxCell>
        <mxCell id="M-R3emzxL240U-5onMwY-14" value="" style="rounded=0;whiteSpace=wrap;html=1;" parent="1" vertex="1">
          <mxGeometry x="522" y="530" width="20" height="20" as="geometry" />
        </mxCell>
        <mxCell id="M-R3emzxL240U-5onMwY-15" value="" style="shape=image;html=1;verticalAlign=top;verticalLabelPosition=bottom;labelBackgroundColor=#ffffff;imageAspect=0;aspect=fixed;image=https://cdn3.iconfinder.com/data/icons/miscellaneous-80/60/check-128.png" parent="1" vertex="1">
          <mxGeometry x="530" y="339" width="38" height="38" as="geometry" />
        </mxCell>
        <mxCell id="M-R3emzxL240U-5onMwY-16" value="" style="rounded=0;whiteSpace=wrap;html=1;fillColor=#000000;" parent="1" vertex="1">
          <mxGeometry x="566" y="550" width="50" height="5" as="geometry" />
        </mxCell>
        <mxCell id="M-R3emzxL240U-5onMwY-17" value="" style="rounded=0;whiteSpace=wrap;html=1;fillColor=#000000;" parent="1" vertex="1">
          <mxGeometry x="566" y="526" width="45" height="5" as="geometry" />
        </mxCell>
        <mxCell id="M-R3emzxL240U-5onMwY-18" value="" style="rounded=0;whiteSpace=wrap;html=1;fillColor=#000000;" parent="1" vertex="1">
          <mxGeometry x="566" y="538" width="40" height="5" as="geometry" />
        </mxCell>
        <mxCell id="M-R3emzxL240U-5onMwY-19" value="" style="ellipse;whiteSpace=wrap;html=1;aspect=fixed;fillColor=#ff0d00;strokeColor=#b85450;" parent="1" vertex="1">
          <mxGeometry x="479" y="687" width="5" height="5" as="geometry" />
        </mxCell>
        <mxCell id="M-R3emzxL240U-5onMwY-20" value="" style="ellipse;whiteSpace=wrap;html=1;aspect=fixed;fillColor=#ff0d00;strokeColor=#b85450;" parent="1" vertex="1">
          <mxGeometry x="464" y="687" width="5" height="5" as="geometry" />
        </mxCell>
        <mxCell id="M-R3emzxL240U-5onMwY-21" value="" style="ellipse;whiteSpace=wrap;html=1;aspect=fixed;fillColor=#ff0d00;strokeColor=#b85450;" parent="1" vertex="1">
          <mxGeometry x="449" y="687" width="5" height="5" as="geometry" />
        </mxCell>
        <mxCell id="M-R3emzxL240U-5onMwY-22" value="" style="triangle;whiteSpace=wrap;html=1;aspect=fixed;fillColor=#ff0000;" parent="1" vertex="1">
          <mxGeometry x="490" y="693.34" width="25" height="33.33" as="geometry" />
        </mxCell>
        <mxCell id="M-R3emzxL240U-5onMwY-23" value="" style="endArrow=classic;startArrow=classic;html=1;rounded=0;entryX=0;entryY=0.5;entryDx=0;entryDy=0;" parent="1" source="M-R3emzxL240U-5onMwY-9" target="M-R3emzxL240U-5onMwY-4" edge="1">
          <mxGeometry width="50" height="50" relative="1" as="geometry">
            <mxPoint x="110" y="557" as="sourcePoint" />
            <mxPoint x="220" y="540" as="targetPoint" />
          </mxGeometry>
        </mxCell>
        <mxCell id="M-R3emzxL240U-5onMwY-24" value="" style="endArrow=classic;startArrow=classic;html=1;rounded=0;entryX=0;entryY=0.157;entryDx=0;entryDy=0;entryPerimeter=0;" parent="1" target="M-R3emzxL240U-5onMwY-5" edge="1">
          <mxGeometry width="50" height="50" relative="1" as="geometry">
            <mxPoint x="319" y="491" as="sourcePoint" />
            <mxPoint x="440" y="500" as="targetPoint" />
            <Array as="points">
              <mxPoint x="320" y="310" />
            </Array>
          </mxGeometry>
        </mxCell>
        <mxCell id="M-R3emzxL240U-5onMwY-25" value="" style="endArrow=classic;startArrow=classic;html=1;rounded=0;entryX=0;entryY=0.75;entryDx=0;entryDy=0;exitX=0.25;exitY=1;exitDx=0;exitDy=0;" parent="1" source="M-R3emzxL240U-5onMwY-3" target="M-R3emzxL240U-5onMwY-6" edge="1">
          <mxGeometry width="50" height="50" relative="1" as="geometry">
            <mxPoint x="300" y="620" as="sourcePoint" />
            <mxPoint x="380" y="680" as="targetPoint" />
            <Array as="points">
              <mxPoint x="280" y="725" />
            </Array>
          </mxGeometry>
        </mxCell>
        <mxCell id="M-R3emzxL240U-5onMwY-26" value="" style="endArrow=classic;html=1;rounded=0;exitX=1;exitY=0;exitDx=0;exitDy=0;" parent="1" edge="1">
          <mxGeometry width="50" height="50" relative="1" as="geometry">
            <mxPoint x="560" y="302" as="sourcePoint" />
            <mxPoint x="568" y="361.20879120879124" as="targetPoint" />
            <Array as="points">
              <mxPoint x="720" y="302" />
              <mxPoint x="720" y="361" />
            </Array>
          </mxGeometry>
        </mxCell>
        <mxCell id="M-R3emzxL240U-5onMwY-27" value="" style="endArrow=classic;html=1;rounded=0;" parent="1" edge="1">
          <mxGeometry width="50" height="50" relative="1" as="geometry">
            <mxPoint x="627" y="500" as="sourcePoint" />
            <mxPoint x="627" y="560" as="targetPoint" />
            <Array as="points">
              <mxPoint x="760" y="500" />
              <mxPoint x="760" y="560" />
            </Array>
          </mxGeometry>
        </mxCell>
        <mxCell id="M-R3emzxL240U-5onMwY-29" value="" style="ellipse;whiteSpace=wrap;html=1;aspect=fixed;" parent="1" vertex="1">
          <mxGeometry x="490" y="304" width="20" height="20" as="geometry" />
        </mxCell>
        <mxCell id="M-R3emzxL240U-5onMwY-30" value="" style="whiteSpace=wrap;html=1;" parent="1" vertex="1">
          <mxGeometry x="270" y="499" width="80" height="64" as="geometry" />
        </mxCell>
        <mxCell id="M-R3emzxL240U-5onMwY-31" value="6.&amp;nbsp;Génère et signe une assertion" style="text;html=1;strokeColor=none;fillColor=none;align=center;verticalAlign=middle;whiteSpace=wrap;rounded=0;" parent="1" vertex="1">
          <mxGeometry x="620" y="274" width="180" height="30" as="geometry" />
        </mxCell>
        <mxCell id="M-R3emzxL240U-5onMwY-32" value="4. Redirige l&#39;IdP" style="text;html=1;strokeColor=none;fillColor=none;align=center;verticalAlign=middle;whiteSpace=wrap;rounded=0;" parent="1" vertex="1">
          <mxGeometry x="275" y="289" width="210" height="30" as="geometry" />
        </mxCell>
        <mxCell id="M-R3emzxL240U-5onMwY-33" value="2. Redirige l&#39;utilisateur vers le SP" style="text;html=1;strokeColor=none;fillColor=none;align=center;verticalAlign=middle;whiteSpace=wrap;rounded=0;" parent="1" vertex="1">
          <mxGeometry x="377" y="555" width="120" height="30" as="geometry" />
        </mxCell>
        <mxCell id="M-R3emzxL240U-5onMwY-35" value="5. Authentifie l&#39;utilisateur" style="text;html=1;strokeColor=none;fillColor=none;align=center;verticalAlign=middle;whiteSpace=wrap;rounded=0;" parent="1" vertex="1">
          <mxGeometry x="290" y="210" width="180" height="30" as="geometry" />
        </mxCell>
        <mxCell id="M-R3emzxL240U-5onMwY-36" value="&lt;b&gt;Fournisseur de l&#39;identité&lt;/b&gt;" style="text;html=1;strokeColor=none;fillColor=none;align=center;verticalAlign=middle;whiteSpace=wrap;rounded=0;" parent="1" vertex="1">
          <mxGeometry x="545" y="319" width="180" height="30" as="geometry" />
        </mxCell>
        <mxCell id="M-R3emzxL240U-5onMwY-37" value="&lt;b&gt;Fournisseur de servce&lt;/b&gt;" style="text;html=1;strokeColor=none;fillColor=none;align=center;verticalAlign=middle;whiteSpace=wrap;rounded=0;" parent="1" vertex="1">
          <mxGeometry x="603" y="516" width="180" height="30" as="geometry" />
        </mxCell>
        <mxCell id="M-R3emzxL240U-5onMwY-38" value="8.&amp;nbsp;Valide l’assertion et l’identité de l’utilisateur" style="text;html=1;strokeColor=none;fillColor=none;align=center;verticalAlign=middle;whiteSpace=wrap;rounded=0;" parent="1" vertex="1">
          <mxGeometry x="680" y="463" width="120" height="30" as="geometry" />
        </mxCell>
        <mxCell id="M-R3emzxL240U-5onMwY-39" value="&lt;div&gt;9. Redirige l’utilisateur vers l’application&lt;/div&gt;" style="text;html=1;strokeColor=none;fillColor=none;align=center;verticalAlign=middle;whiteSpace=wrap;rounded=0;" parent="1" vertex="1">
          <mxGeometry x="254" y="730" width="160" height="30" as="geometry" />
        </mxCell>
        <mxCell id="M-R3emzxL240U-5onMwY-40" value="&lt;b&gt;Application&lt;/b&gt;" style="text;html=1;strokeColor=none;fillColor=none;align=center;verticalAlign=middle;whiteSpace=wrap;rounded=0;" parent="1" vertex="1">
          <mxGeometry x="507" y="695" width="180" height="30" as="geometry" />
        </mxCell>
        <mxCell id="ChqPJJlyWwDbHh0CpwSx-1" value="" style="endArrow=classic;startArrow=classic;html=1;rounded=0;entryX=0;entryY=0.25;entryDx=0;entryDy=0;exitX=0.25;exitY=1;exitDx=0;exitDy=0;" parent="1" target="M-R3emzxL240U-5onMwY-6" edge="1">
          <mxGeometry width="50" height="50" relative="1" as="geometry">
            <mxPoint x="335" y="580" as="sourcePoint" />
            <mxPoint x="495" y="725" as="targetPoint" />
            <Array as="points">
              <mxPoint x="335" y="695" />
            </Array>
          </mxGeometry>
        </mxCell>
        <mxCell id="ChqPJJlyWwDbHh0CpwSx-2" value="&lt;div&gt;1. L&#39;utilisateur accède à l&#39;appli sans session&lt;/div&gt;" style="text;html=1;strokeColor=none;fillColor=none;align=center;verticalAlign=middle;whiteSpace=wrap;rounded=0;" parent="1" vertex="1">
          <mxGeometry x="320" y="640" width="160" height="30" as="geometry" />
        </mxCell>
        <mxCell id="ChqPJJlyWwDbHh0CpwSx-3" value="" style="endArrow=classic;startArrow=classic;html=1;rounded=0;entryX=0;entryY=0.25;entryDx=0;entryDy=0;" parent="1" edge="1">
          <mxGeometry width="50" height="50" relative="1" as="geometry">
            <mxPoint x="360" y="505.5" as="sourcePoint" />
            <mxPoint x="506" y="505" as="targetPoint" />
          </mxGeometry>
        </mxCell>
        <mxCell id="ChqPJJlyWwDbHh0CpwSx-4" value="" style="endArrow=classic;startArrow=classic;html=1;rounded=0;entryX=0;entryY=0.25;entryDx=0;entryDy=0;" parent="1" edge="1">
          <mxGeometry width="50" height="50" relative="1" as="geometry">
            <mxPoint x="360" y="554.5" as="sourcePoint" />
            <mxPoint x="506" y="554" as="targetPoint" />
          </mxGeometry>
        </mxCell>
        <mxCell id="ChqPJJlyWwDbHh0CpwSx-5" value="3. Détermine quel IdP utiliser" style="text;html=1;strokeColor=none;fillColor=none;align=center;verticalAlign=middle;whiteSpace=wrap;rounded=0;" parent="1" vertex="1">
          <mxGeometry x="370" y="476" width="120" height="30" as="geometry" />
        </mxCell>
        <mxCell id="ChqPJJlyWwDbHh0CpwSx-6" value="" style="endArrow=classic;startArrow=classic;html=1;rounded=0;entryX=0;entryY=0.75;entryDx=0;entryDy=0;exitX=0.25;exitY=0;exitDx=0;exitDy=0;" parent="1" target="M-R3emzxL240U-5onMwY-5" edge="1">
          <mxGeometry width="50" height="50" relative="1" as="geometry">
            <mxPoint x="350" y="490" as="sourcePoint" />
            <mxPoint x="505" y="310" as="targetPoint" />
            <Array as="points">
              <mxPoint x="350" y="352" />
            </Array>
          </mxGeometry>
        </mxCell>
        <mxCell id="ChqPJJlyWwDbHh0CpwSx-7" value="" style="endArrow=classic;startArrow=classic;html=1;rounded=0;entryX=0.25;entryY=0;entryDx=0;entryDy=0;" parent="1" target="M-R3emzxL240U-5onMwY-5" edge="1">
          <mxGeometry width="50" height="50" relative="1" as="geometry">
            <mxPoint x="280" y="490" as="sourcePoint" />
            <mxPoint x="380" y="170" as="targetPoint" />
            <Array as="points">
              <mxPoint x="280" y="230" />
              <mxPoint x="470" y="230" />
            </Array>
          </mxGeometry>
        </mxCell>
        <mxCell id="ChqPJJlyWwDbHh0CpwSx-10" value="7. Redirige l&#39;utilisateur vers le SP avec une assertion" style="text;html=1;strokeColor=none;fillColor=none;align=left;verticalAlign=middle;whiteSpace=wrap;rounded=0;" parent="1" vertex="1">
          <mxGeometry x="354" y="390" width="146" height="30" as="geometry" />
        </mxCell>
      </root>
    </mxGraphModel>
  </diagram>
</mxfile>
